#!OML:ASF X:\für Bonn\!DataBase\2005_08_10_Bjorn_Final\c3d\bjorn.ASF
:FULLY-SPECIFIED
:DEGREES
125
root 9.85242 8.62478 0.818945 -240.518 82.0416 -230.304
lowerback 43.3517 -2.8419 6.70452
upperback 22.2829 3.4715 1.38812
thorax 4.89382 4.1217 -2.80025
lowerneck -7.34719 -9.08014 3.82472
upperneck 9.90524 -12.6316 1.20908
head 4.41545 -5.96569 -1.00025
rclavicle 2.22639e-014 -2.8625e-014
rhumerus 24.3777 -12.4885 -68.0505
rradius 20.9732
rwrist 7.38312
rhand -33.216 23.0644
rfingers 7.12502
rthumb -6.42273 -6.81824
lclavicle 2.22639e-014 -2.8625e-014
lhumerus 13.5865 -34.1583 61.744
lradius 49.0269
lwrist -6.33197
lhand -26.9857 -13.7612
lfingers 7.12502
lthumb -0.406266 16.2182
rfemur -21.7467 -68.1458 -80.1824
rtibia 149.662
rfoot -35.1297 80.7084
rtoes -12.015
lfemur -90.5885 43.9178 -29.2738
ltibia 144.413
lfoot -27.2457 -24.8873
ltoes -17.1144
126
root 9.87088 8.55606 0.805364 -240.967 82.1344 -230.582
lowerback 43.4143 -2.91285 6.82028
upperback 22.2941 3.44024 1.42806
thorax 4.89381 4.11732 -2.80505
lowerneck -7.35092 -9.11774 3.73704
upperneck 10.0012 -12.6694 1.17948
head 4.45453 -5.9847 -1.00189
rclavicle -8.26944e-014 -2.22639e-014
rhumerus 24.2739 -12.7064 -68.3155
rradius 21.1423
rwrist 7.66009
rhand -33.8969 23.3196
rfingers 7.12502
rthumb -7.08005 -6.542
lclavicle -8.26944e-014 -2.22639e-014
lhumerus 13.0014 -34.2427 62.3311
lradius 48.5888
lwrist -6.67304
lhand -26.8806 -13.6681
lfingers 7.12502
lthumb -0.304743 16.3114
rfemur -18.947 -68.3689 -84.0751
rtibia 150.093
rfoot -39.9668 81.1732
rtoes -12.577
lfemur -91.1049 45.3523 -29.3637
ltibia 144.987
lfoot -27.3088 -25.6609
ltoes -16.7789
127
root 9.88914 8.49053 0.792436 -241.481 82.251 -230.934
lowerback 43.4865 -2.96053 6.93231
upperback 22.2881 3.43259 1.47993
thorax 4.8725 4.12019 -2.80402
lowerneck -7.36408 -9.15784 3.6436
upperneck 10.149 -12.7106 1.14939
head 4.51493 -6.00322 -1.00562
rclavicle 2.54444e-014 3.49861e-014
rhumerus 24.1215 -12.9267 -68.559
rradius 21.3257
rwrist 7.85177
rhand -34.5748 23.6512
rfingers 7.12502
rthumb -7.73435 -6.18737
lclavicle 2.54444e-014 3.49861e-014
lhumerus 12.4063 -34.3718 62.9246
lradius 48.1336
lwrist -6.9927
lhand -26.7836 -13.6183
lfingers 7.12502
lthumb -0.211035 16.3614
rfemur -16.1045 -68.513 -87.9477
rtibia 150.497
rfoot -46.2188 81.472
rtoes -13.2615
lfemur -91.6251 46.838 -29.4435
ltibia 145.528
lfoot -27.3805 -26.4489
ltoes -16.5864
128
root 9.90622 8.42971 0.779111 -241.816 82.3584 -231.126
lowerback 43.5216 -3.03436 7.07431
upperback 22.3127 3.4067 1.52163
thorax 4.89748 4.12259 -2.81962
lowerneck -7.45761 -9.19199 3.55901
upperneck 10.2729 -12.7483 1.102
head 4.58098 -6.02156 -1.02043
rclavicle -6.04305e-014 -1.27222e-014
rhumerus 24.0027 -13.0685 -68.7646
rradius 21.4977
rwrist 7.97391
rhand -35.3275 24.0297
rfingers 7.12502
rthumb -8.46079 -5.78085
lclavicle -6.04305e-014 -1.27222e-014
lhumerus 11.849 -34.4439 63.5484
lradius 47.6207
lwrist -7.37417
lhand -26.7572 -13.5974
lfingers 7.12502
lthumb -0.185556 16.3823
rfemur -13.6683 -68.5676 -91.347
rtibia 150.865
rfoot -52.1637 81.6632
rtoes -13.9854
lfemur -92.1894 48.1491 -29.5802
ltibia 146.047
lfoot -27.4913 -27.0283
ltoes -16.6427
129
root 9.92341 8.37153 0.767381 -241.993 82.4735 -231.164
lowerback 43.5895 -3.10936 7.22997
upperback 22.3002 3.38282 1.56915
thorax 4.87167 4.12175 -2.83984
lowerneck -7.48113 -9.22903 3.49397
upperneck 10.3986 -12.7847 1.03588
head 4.63091 -6.03979 -1.03997
rclavicle 9.54166e-015 0
rhumerus 23.8356 -13.1825 -68.9519
rradius 21.6192
rwrist 8.09983
rhand -36.2076 24.5436
rfingers 7.12502
rthumb -9.31013 -5.23082
lclavicle 9.54166e-015 0
lhumerus 11.2842 -34.609 64.1643
lradius 47.0961
lwrist -7.67197
lhand -26.7079 -13.4921
lfingers 7.12502
lthumb -0.137944 16.4876
rfemur -11.1726 -68.5401 -94.7611
rtibia 151.211
rfoot -58.3478 81.8099
rtoes -14.6514
lfemur -92.7504 49.5035 -29.7027
ltibia 146.552
lfoot -27.5477 -27.6858
ltoes -16.3064
130
root 9.93997 8.31814 0.754867 -242.406 82.5574 -231.406
lowerback 43.677 -3.187 7.36113
upperback 22.3227 3.35794 1.59206
thorax 4.8814 4.12685 -2.87119
lowerneck -7.56442 -9.26664 3.4493
upperneck 10.5197 -12.8295 0.981401
head 4.69068 -6.06076 -1.0632
rclavicle -1.36764e-013 -4.92986e-014
rhumerus 23.7094 -13.3032 -69.148
rradius 21.7277
rwrist 8.14086
rhand -37.0529 25.1332
rfingers 7.12502
rthumb -10.1257 -4.60314
lclavicle -1.36764e-013 -4.92986e-014
lhumerus 10.804 -34.7 64.7787
lradius 46.4954
lwrist -8.03834
lhand -26.5015 -13.4696
lfingers 7.12502
lthumb 0.0613852 16.5101
rfemur -9.26699 -68.4212 -97.5644
rtibia 151.507
rfoot -63.7032 81.9403
rtoes -15.1164
lfemur -93.1787 50.7989 -29.8352
ltibia 147.02
lfoot -27.6623 -28.2073
ltoes -16.0503
131
root 9.95553 8.26986 0.742625 -242.653 82.6302 -231.477
lowerback 43.8058 -3.2781 7.51283
upperback 22.3213 3.32877 1.61899
thorax 4.85396 4.12918 -2.90938
lowerneck -7.66275 -9.30656 3.39354
upperneck 10.6728 -12.8777 0.934157
head 4.76684 -6.08193 -1.08492
rclavicle 4.13472e-014 3.97569e-014
rhumerus 23.5969 -13.476 -69.3609
rradius 21.7612
rwrist 8.29073
rhand -37.9617 25.7703
rfingers 7.12502
rthumb -11.0023 -3.92137
lclavicle 4.13472e-014 3.97569e-014
lhumerus 10.3393 -34.8799 65.3918
lradius 45.8799
lwrist -8.38134
lhand -26.2858 -13.3393
lfingers 7.12502
lthumb 0.269673 16.6403
rfemur -7.81869 -68.25 -99.8022
rtibia 151.755
rfoot -68.2814 82.0681
rtoes -15.437
lfemur -93.5631 51.9944 -29.963
ltibia 147.451
lfoot -27.7797 -28.647
ltoes -15.9591
132
root 9.97148 8.22579 0.731012 -242.962 82.7035 -231.617
lowerback 43.9119 -3.3688 7.6487
upperback 22.3488 3.29651 1.64237
thorax 4.86497 4.13262 -2.9397
lowerneck -7.74767 -9.34342 3.33324
upperneck 10.7484 -12.9209 0.895614
head 4.81284 -6.104 -1.09899
rclavicle 5.08889e-014 1.74931e-014
rhumerus 23.4985 -13.6147 -69.5576
rradius 21.8274
rwrist 8.45717
rhand -38.9148 26.4324
rfingers 7.12502
rthumb -11.9215 -3.20817
lclavicle 5.08889e-014 1.74931e-014
lhumerus 9.91932 -34.9996 66.006
lradius 45.2494
lwrist -8.78846
lhand -25.9154 -13.2501
lfingers 7.12502
lthumb 0.627473 16.7288
rfemur -6.69441 -68.0732 -101.679
rtibia 151.981
rfoot -72.6818 82.1469
rtoes -15.848
lfemur -93.8768 53.1808 -30.0738
ltibia 147.843
lfoot -27.9348 -29.0526
ltoes -15.7569
133
root 9.98673 8.18481 0.719577 -243.14 82.7951 -231.648
lowerback 43.9933 -3.45655 7.78462
upperback 22.3879 3.26691 1.69145
thorax 4.89474 4.13585 -2.94189
lowerneck -7.84818 -9.36674 3.29364
upperneck 11.2143 -12.942 0.772689
head 4.48909 -6.11912 -1.05061
rclavicle -3.18055e-015 -2.70347e-014
rhumerus 23.4457 -13.7184 -69.7155
rradius 21.8809
rwrist 8.53099
rhand -39.732 27.1268
rfingers 7.12502
rthumb -12.7094 -2.46642
lclavicle -3.18055e-015 -2.70347e-014
lhumerus 9.53584 -35.0739 66.6622
lradius 44.5854
lwrist -9.22949
lhand -25.4843 -13.1523
lfingers 7.12502
lthumb 1.0438 16.8249
rfemur -5.79669 -67.9169 -103.244
rtibia 152.167
rfoot -76.1578 82.5104
rtoes -15.566
lfemur -94.2293 54.3557 -30.1749
ltibia 148.231
lfoot -28.2232 -29.3584
ltoes -15.9519
134
root 10.0018 8.14687 0.708378 -243.118 82.875 -231.491
lowerback 44.0407 -3.56836 7.93474
upperback 22.4457 3.21277 1.71998
thorax 4.95474 4.13316 -2.96316
lowerneck -8.02504 -9.37992 3.23973
upperneck 11.3482 -12.9567 0.706718
head 4.558 -6.12663 -1.07701
rclavicle -2.8625e-014 2.22639e-014
rhumerus 23.417 -13.8113 -69.9127
rradius 21.9475
rwrist 8.60908
rhand -40.4651 27.953
rfingers 7.12502
rthumb -13.4161 -1.59499
lclavicle -2.8625e-014 2.22639e-014
lhumerus 9.20311 -35.1864 67.2336
lradius 43.9533
lwrist -9.651
lhand -25.024 -13.0454
lfingers 7.12502
lthumb 1.48836 16.9291
rfemur -5.07354 -67.7623 -104.599
rtibia 152.323
rfoot -79.491 83.0425
rtoes -15.132
lfemur -94.6029 55.3899 -30.2941
ltibia 148.592
lfoot -28.3963 -29.6708
ltoes -16.0578
135
root 10.017 8.11237 0.697356 -243.189 83.0242 -231.43
lowerback 44.0933 -3.66326 8.09298
upperback 22.5183 3.18466 1.77759
thorax 5.03232 4.14294 -2.96399
lowerneck -8.2475 -9.39318 3.16717
upperneck 11.5057 -12.9661 0.595652
head 4.63987 -6.13416 -1.11698
rclavicle 3.81667e-014 -1.11319e-014
rhumerus 23.4565 -13.9487 -70.1173
rradius 21.9585
rwrist 8.76571
rhand -41.047 28.8173
rfingers 7.12502
rthumb -13.9769 -0.692837
lclavicle 3.81667e-014 -1.11319e-014
lhumerus 8.92676 -35.2644 67.8192
lradius 43.3096
lwrist -10.1836
lhand -24.597 -13.0052
lfingers 7.12502
lthumb 1.90081 16.9661
rfemur -4.60656 -67.6305 -105.567
rtibia 152.452
rfoot -82.8824 83.6119
rtoes -14.4049
lfemur -94.9466 56.5695 -30.356
ltibia 148.931
lfoot -28.751 -29.9319
ltoes -16.3856
136
root 10.0321 8.08015 0.686398 -243.171 83.1461 -231.298
lowerback 44.1112 -3.75134 8.2276
upperback 22.612 3.15556 1.84843
thorax 5.14104 4.15157 -2.93643
lowerneck -8.51034 -9.41339 3.08499
upperneck 11.6443 -12.9866 0.496557
head 4.72393 -6.14778 -1.15437
rclavicle -4.45278e-014 -2.70347e-014
rhumerus 23.5018 -14.0483 -70.2707
rradius 22.0058
rwrist 8.83373
rhand -41.5547 29.6612
rfingers 7.12502
rthumb -14.4662 0.185479
lclavicle -4.45278e-014 -2.70347e-014
lhumerus 8.69966 -35.3396 68.3959
lradius 42.6833
lwrist -10.783
lhand -24.1487 -13.0009
lfingers 7.12502
lthumb 2.3338 16.9661
rfemur -4.24061 -67.5062 -106.432
rtibia 152.557
rfoot -86.712 84.3539
rtoes -13.4581
lfemur -95.2898 57.634 -30.4495
ltibia 149.251
lfoot -29.1686 -30.099
ltoes -16.9447
